# xmcd
#
# Track frame offsets:
#	150
#	3554
#	12661
#	14057
#	15125
#	18082
#	35396
#	59547
#	79396
#	94565
#	114969
#	137187
#	139443
#	156837
#	158374
#	160214
#	167869
#	184105
#	195569
#	203273
#
# Disc length: 3025 seconds
#
# Revision: 0
# Processed by: cddbd v1.5.1PL2 Copyright (c) Steve Scherf et al.
# Submitted via: EasyCDDAExtractor 8.1.2.3
#
DISCID=f60bcf14
DTITLE=Snoop Dogg - Pay da cost to be da boss
DYEAR=2002
DGENRE=Rap
TTITLE0=Don Doggy
TTITLE1=Da Boss Would Like To See You
TTITLE2=Stoplight
TTITLE3=From Tha Chuuuch To Da Palace
TTITLE4=I Believe In You (Ft Latoiya W)
TTITLE5=Lollipop (Ft Jay-Z Soopafly Na)
TTITLE6=Ballin' (Ft The Dramatics Lil)
TTITLE7=beautiful ft pharell
TTITLE8=Paper'd Up Ft Mr Kane Traci N
TTITLE9=Wasn't Your Fault
TTITLE10=Boss Playa
TTITLE11=Hourglass (Ft Mr Kane Goldie L)
TTITLE12=The One And Only
TTITLE13=I Miss That Bitch (Ft E-White)
TTITLE14=From LB To Brick City (Ft Redman)
TTITLE15=Suite N Boosted
TTITLE16=you got what i want ft ludacris
TTITLE17=Batman And Robin (Ft Lady Of R)
TTITLE18=Message 2 Fat Cuzz A
TTITLE19=Pimp Slapp'd
EXTD=
EXTT0=
EXTT1=
EXTT2=
EXTT3=
EXTT4=
EXTT5=
EXTT6=
EXTT7=
EXTT8=
EXTT9=
EXTT10=
EXTT11=
EXTT12=
EXTT13=
EXTT14=
EXTT15=
EXTT16=
EXTT17=
EXTT18=
EXTT19=
PLAYORDER=
